<svg width="34" height="42" viewBox="0 0 34 42" fill="none" xmlns="http://www.w3.org/2000/svg">
<path d="M0.714294 25.7618V20.3491C0.714294 18.6923 2.05744 17.3491 3.71429 17.3491H25.9524M0.714294 31.9523V37.9999C0.714294 39.6568 2.05744 40.9999 3.71429 40.9999H25.9524M25.9524 17.3491H29.8571C31.514 17.3491 32.8572 18.6923 32.8572 20.3491V25.7618M25.9524 17.3491C27.037 17.4814 29.2381 18.3174 29.3651 20.6031C29.4921 22.8888 29.418 24.9946 29.3651 25.7618M29.3651 25.7618H20.9127C18.8745 25.7618 17.2222 27.4141 17.2222 29.4523V29.4523C17.2222 31.4905 18.8745 33.1428 20.9127 33.1428H29.3651M29.3651 25.7618H32.8572M29.3651 33.1428V38.0634C29.2593 39.0422 28.4286 40.9999 25.9524 40.9999M29.3651 33.1428H32.8572M25.9524 40.9999H29.8572C31.514 40.9999 32.8572 39.6568 32.8572 37.9999V33.1428M32.8572 33.1428V25.7618" stroke="black" stroke-linecap="round"/>
<circle cx="22.6984" cy="6.71418" r="3.78571" stroke="black"/>
<circle cx="10.9524" cy="13.0635" r="3.78571" stroke="black"/>
<path d="M14.7619 1V8.14286M10.7143 1V5.44444" stroke="black" stroke-linecap="round" stroke-linejoin="round"/>
<circle cx="0.634921" cy="29.0951" r="0.634921" fill="black"/>
<circle cx="20" cy="29.0951" r="0.634921" fill="black"/>
</svg>
