<svg width="43" height="42" viewBox="0 0 43 42" fill="none" xmlns="http://www.w3.org/2000/svg">
<path d="M12.44 41H1V36.28M12.44 41H21.48V38.28M12.44 41V38.28M12.44 6.2H1V10.3204M12.44 6.2V8.26018M12.44 6.2V4.63009M21.48 9.48L32.84 6.2L33.96 10.3204M21.48 9.48L22.719 13.8M21.48 9.48V34.04M21.48 9.48V8.26018M22.719 13.8L33.96 10.3204M22.719 13.8L23.5679 16.76M33.96 10.3204L34.9058 13.8M23.5679 16.76L34.9058 13.8M23.5679 16.76L28.1338 32.68M34.9058 13.8L39.255 29.8M28.1338 32.68L39.255 29.8M28.1338 32.68L29.3269 36.84M39.255 29.8L40.4075 34.04M29.3269 36.84L30.52 41L41.56 38.28L40.4075 34.04M29.3269 36.84L40.4075 34.04M1 31.56H12.44M1 31.56V36.28M1 31.56V10.3204M12.44 31.56V33.92M12.44 31.56V10.3204M1 36.28H12.44M12.44 36.28V38.28M12.44 36.28V33.92M12.44 38.28H21.48M21.48 38.28V34.04M12.44 33.92L21.48 34.04M1 10.3204H12.44M12.44 10.3204V8.26018M12.44 8.26018H21.48M21.48 8.26018V4.63009M21.48 4.63009V1H12.44V4.63009M21.48 4.63009H12.44M3.88 13.8V20.92H9.72V13.8H3.88Z" stroke="black"/>
</svg>
