<svg width="39" height="43" viewBox="0 0 39 43" fill="none" xmlns="http://www.w3.org/2000/svg">
<path d="M15.2218 1H4.05682C2.39996 1 1.05682 2.34315 1.05682 4V31.3421M1.05682 31.3421C0.815367 29.6787 1.21778 26.4004 4.75903 26.5936H29.7892M1.05682 31.3421C1.76507 33.2736 3.82006 33.9175 4.75903 33.998H10.8757M29.7892 26.5936V21.2012M29.7892 26.5936V33.998H20.1313M20.1313 33.998V41L15.8657 36.4125L10.8757 41V33.998M20.1313 33.998V30.1348M10.8757 33.998V30.1348M7.7369 30.1348H10.8757M23.5115 30.1348H20.1313M10.8757 30.1348H20.1313M17.7973 7.59405L14.1755 6.07042L25.8455 1L37.2741 6.07042L33.7273 7.59405M17.7973 7.59405L25.8455 10.9799L33.7273 7.59405M17.7973 7.59405V13.3944C20.3995 15.8357 27.262 19.2535 33.8938 13.3944L33.7273 7.59405" stroke="black" stroke-linecap="round"/>
</svg>
