<svg width="40" height="40" viewBox="0 0 40 40" fill="none" xmlns="http://www.w3.org/2000/svg">
<path d="M25.1068 3.87238L25.2172 3.94323L25.3481 3.95079L31.4065 4.30034L33.6111 9.95418L33.6587 10.0764L33.7602 10.1594L38.4561 14.0033L36.9164 19.8731L36.8831 20L36.9164 20.1269L38.4561 25.9967L33.7602 29.8406L33.6587 29.9236L33.6111 30.0458L31.4065 35.6997L25.3481 36.0492L25.2172 36.0568L25.1068 36.1276L20 39.4058L14.8932 36.1276L14.7828 36.0568L14.6519 36.0492L8.59353 35.6997L6.38894 30.0458L6.3413 29.9236L6.23981 29.8406L1.54395 25.9967L3.08364 20.1269L3.11692 20L3.08364 19.8731L1.54395 14.0033L6.23981 10.1594L6.3413 10.0764L6.38894 9.95418L8.59353 4.30034L14.6519 3.95079L14.7828 3.94323L14.8932 3.87238L20 0.594154L25.1068 3.87238Z" stroke="#0F252A"/>
<circle cx="20" cy="20" r="10.9625" stroke="#0F252A"/>
<path d="M14.5454 19.2886L18.4189 23.4783L25.4545 16.6008" stroke="#0F252A" stroke-linecap="round"/>
</svg>
