<svg width="34" height="36" viewBox="0 0 34 36" fill="none" xmlns="http://www.w3.org/2000/svg">
<path d="M32.25 20.5751C32.25 28.6535 25.4485 35.2488 17 35.2488C8.55149 35.2488 1.75 28.6535 1.75 20.5751C1.75 12.4967 8.55149 5.90137 17 5.90137C25.4485 5.90137 32.25 12.4967 32.25 20.5751Z" stroke="#0F252A" stroke-width="1.5"/>
<path d="M11.7618 6.33764C11.0015 4.264 8.94994 2.77832 6.53846 2.77832C3.47965 2.77832 1 5.16866 1 8.1173C1 10.1835 2.2175 11.9755 3.99864 12.8631" stroke="#0F252A" stroke-width="1.5"/>
<path d="M16.3845 5.74577V1M16.3845 1H12.6922M16.3845 1H20.0768M16.3845 13.4576V21.1695H26.2306M5.92293 31.2543L1.61523 34.8136M31.7691 34.8136L27.4614 31.2543" stroke="#0F252A" stroke-width="1.5"/>
<path d="M22.2383 6.33764C22.9986 4.264 25.0501 2.77832 27.4616 2.77832C30.5204 2.77832 33.0001 5.16867 33.0001 8.11731C33.0001 9.9684 32.0228 11.5995 30.5385 12.5572" stroke="#0F252A" stroke-width="1.5"/>
</svg>
