<svg width="604" height="334" viewBox="0 0 604 334" fill="none" xmlns="http://www.w3.org/2000/svg">
<g clip-path="url(#clip0_123_1805)">
<path opacity="0.1" d="M-38.875 -104C-38.875 -104 -22.3869 18.3176 74.835 29.0156C172.057 39.7137 133.421 66.8359 240.506 78.6192C347.591 90.4026 357.909 152.146 425.542 159.588C493.175 167.03 448.195 264.758 543.304 275.224C638.412 285.689 595.214 371.492 643.361 376.79C718.039 385.007 693.755 365.935 743.071 371.362C791.218 376.66 857.629 418.906 857.629 418.906" stroke="#75FB92" stroke-width="5.67007"/>
<path opacity="0.1" d="M-9.45312 -212C-9.45312 -212 -2.21886 -88.7883 93.922 -70.8026C190.063 -52.8169 149.495 -28.6799 255.389 -8.86949C361.283 10.9409 366.925 73.286 433.806 85.7978C500.686 98.3097 448.478 192.375 542.529 209.969C636.58 227.564 587.046 309.871 634.658 318.779C708.506 332.594 685.726 311.748 734.493 320.871C782.105 329.778 845.148 376.904 845.148 376.904" stroke="#75FB92" stroke-width="5.67007"/>
</g>
<defs>
<clipPath id="clip0_123_1805">
<rect width="604" height="334" fill="white"/>
</clipPath>
</defs>
</svg>
